<?xml version="1.0" encoding="utf-8"?>
<!-- Svg Vector Icons : http://www.onlinewebfonts.com/icon -->
<!DOCTYPE svg PUBLIC "-//W3C//DTD SVG 1.1//EN" "http://www.w3.org/Graphics/SVG/1.1/DTD/svg11.dtd">
<svg version="1.1" xmlns="http://www.w3.org/2000/svg" xmlns:xlink="http://www.w3.org/1999/xlink" x="0px" y="0px" viewBox="0 0 1000 1000" enable-background="new 0 0 1000 1000" xml:space="preserve">
<metadata> Svg Vector Icons : http://www.onlinewebfonts.com/icon </metadata>
<g><path fill="white" d="M433.2,312.3h63.7L301.3,445.7l-85.6-62.6v-61.1l85.6,62.6L433.2,312.3z M301.3,583.7l-85.6-62.6v61.1l85.6,62.6l195.6-133.4h-63.7L301.3,583.7z M301.3,782.7l-85.6-62.6v61.1l85.6,62.6l195.6-133.4h-63.7L301.3,782.7z M556.5,801.5h226.2v-75.4H556.5V801.5z M556.5,613.1h226.2v-75.4H556.5V613.1z M556.5,424.6h226.2v-75.4H556.5V424.6z M933.4,286.3v650.9c0,25.6-19.6,46.7-45.6,51.6c-2.6,0.8-5.7,1.1-8.7,1.1H124.5h-1.1c-3.8,0-7.5-0.4-11.3-1.1c-26-4.9-45.6-26.4-45.6-51.6V62.8c0-3.8,0.4-7.2,1.1-10.6C72.9,28.1,95.9,10,123.4,10h506.2h1.5c6.4,0,12.4,2.3,17.3,5.7c1.9,0.8,3.8,2.3,5.3,3.4c2.3,1.5,265,237.5,265,237.5l1.5,1.5C929.7,266.3,934.2,276.9,933.4,286.3z M669.2,249h165.1L669.6,101.9L669.2,249z M861.4,314.2H663.2c0,0-7.5-0.4-10.9-1.1c-26-4.9-45.6-26-45.6-51.6V86.1l-462.9-0.3v828.5h717.7V314.2z"/></g>
</svg>