<svg id="Capa_1" enable-background="new 0 0 512.005 512.005" height="512" viewBox="0 0 512.005 512.005" width="512" xmlns="http://www.w3.org/2000/svg"><g><path fill="white" d="m276.002 312.005h-200c-5.523 0-10 4.478-10 10v40c0 5.522 4.477 10 10 10h54.339l48 80h-22.339c-27.57 0-50 22.43-50 50 0 5.522 4.477 10 10 10h115c5.523 0 10-4.478 10-10s-4.477-10-10-10h-103.286c4.127-11.641 15.249-20 28.287-20h240c13.037 0 24.159 8.359 28.286 20h-103.287c-5.522 0-10 4.478-10 10s4.478 10 10 10h115c5.522 0 10-4.478 10-10 0-27.57-22.43-50-50-50h-30s-.011-11.597-.032-12.394c49.518-28.586 80.032-81.143 80.032-138.606 0-77.639-55.118-141.782-127.56-156.698l22.356-22.386c3.9-3.906 3.898-10.234-.005-14.138l-7.068-7.068 15.341-15.341c10.922 5.229 24.738 3.541 34.146-5.868 11.727-11.725 11.726-30.706.001-42.433l-28.279-28.279c-11.725-11.723-30.707-11.727-42.432 0-9.405 9.404-11.101 23.219-5.869 34.147l-15.341 15.341-7.068-7.068c-3.91-3.908-10.244-3.903-14.147.005l-127.47 127.649c-3.9 3.906-3.898 10.233.005 14.138l7.069 7.067-35.358 35.35c-3.904 3.905-3.906 10.238-.001 14.144l28.29 28.29c3.904 3.903 10.24 3.904 14.143-.001l35.353-35.362 7.076 7.075c3.909 3.906 10.241 3.9 14.144-.006l48.493-48.558h24.182c55.141 0 100 44.859 100 100 0 32.442-16.038 62.987-42.355 81.653-14.807-16.841-35.404-27.587-57.645-30.084v-30.569c-.001-5.523-4.478-10-10.001-10zm-190 20h180v20h-180zm133.502 40c-16.921 13.684-28.799 33.362-32.373 55.777l-33.466-55.777zm26.498 70c0-16.542 13.458-30 30-30s30 13.458 30 30c0 3.423-.593 6.806-1.719 10h-56.562c-1.126-3.194-1.719-6.577-1.719-10zm87.718-369.57-14.142 14.143-14.148-14.149 14.143-14.142zm-7.076-49.499c3.902-3.9 10.231-3.915 14.147.001l28.279 28.279c3.902 3.902 3.916 10.231 0 14.148-3.904 3.904-10.221 3.91-14.132.004-.002-.002-.003-.004-.005-.005l-28.281-28.28c-.003-.003-.006-.007-.009-.01-.002-.002-.004-.003-.005-.005-3.9-3.906-3.904-10.222.006-14.132zm-176.962 233.707-14.146-14.146 28.288-28.281 14.14 14.138zm56.564-28.291-42.427-42.422 113.339-113.497c42.282 42.287-33.695-33.674 42.427 42.427zm199.756 72.653c0-66.168-53.832-120-120-120h-4.209l19.175-19.201c70.462 7.51 125.034 67.812 125.034 139.201 0 47.591-23.928 91.331-63.23 117.089-1.822-6.608-4.401-13-7.68-19.038 31.629-22.381 50.91-59.071 50.91-98.051zm-60 141v10h-21.015c.668-3.278 1.015-6.628 1.015-10 0-27.57-22.43-50-50-50s-50 22.43-50 50c0 3.372.348 6.722 1.015 10h-21.015v-10c0-38.598 31.402-70 70-70 38.11 0 70 30.837 70 70z"/><circle fill="white" cx="276.002" cy="502.005" r="10"/></g></svg>