<svg xmlns="http://www.w3.org/2000/svg" xmlns:xlink="http://www.w3.org/1999/xlink" width="693" height="531" viewBox="0 0 693 531"><defs><style>.a{clip-path:url(#b);}.b{fill:#fff;}</style><clipPath id="b"><rect width="693" height="531"/></clipPath></defs><g id="a" class="a"><g transform="translate(251.019 10)"><path class="b" d="M428.492,149.959c-5.085-31.429-14.3-58.437-27.349-80.236A135.744,135.744,0,0,0,346.252,17.8C323.552,5.99,294.747,0,260.638,0c-33.363,0-62.208,6.2-85.7,18.409-23.5,12.083-42.973,29.914-57.891,53.031-14.406,22.523-24.992,50.029-31.466,81.752-6.374,31.233-9.6,66.455-9.6,104.688,0,38.527,2.577,73.586,7.658,104.2,5.2,31.317,14.489,58.312,27.593,80.2a135.951,135.951,0,0,0,54.618,51.906C188.432,506,217.2,512,251.36,512c33.611,0,62.583-6.2,86.071-18.409,23.5-12.083,42.973-29.913,57.892-53.031,14.458-22.607,25.005-50.081,31.346-81.658,6.2-30.888,9.349-66.141,9.349-104.781,0-38.254-2.532-73.3-7.526-104.159Zm-21.431,205c-5.852,29.137-15.469,54.31-28.564,74.785-12.972,20.1-29.865,35.6-50.249,46.075C307.6,486.556,281.729,492,251.361,492c-30.9,0-56.544-5.227-76.234-15.535a116.283,116.283,0,0,1-46.713-44.425c-11.833-19.761-20.259-44.4-25.044-73.233-4.9-29.535-7.388-63.491-7.388-100.925,0-36.893,3.1-70.77,9.2-100.689,5.98-29.305,15.642-54.53,28.7-74.94,12.971-20.1,29.864-35.6,50.249-46.075C204.777,25.442,230.519,20,260.638,20c30.862,0,56.56,5.23,76.38,15.545A116.07,116.07,0,0,1,383.961,79.96c11.769,19.653,20.109,44.279,24.788,73.194,4.823,29.807,7.269,63.776,7.269,100.965,0,37.32-3.014,71.249-8.957,100.844Z"/><path class="b" d="M331.262,152.642c-.007-.037-.015-.075-.022-.112A181.313,181.313,0,0,0,320.986,118.4c-4.365-10.184-9.816-18.379-16.2-24.36A57.2,57.2,0,0,0,282.556,80.49l-.158-.051a87.733,87.733,0,0,0-25.9-3.705c-16.484,0-30.564,4.14-41.918,12.355-11.025,8.125-19.5,19.834-25.932,35.838-5.892,14.863-9.992,33.267-12.181,54.64-.948,8.742-1.71,18.206-2.267,28.13a10,10,0,1,0,19.969,1.119c.537-9.579,1.271-18.694,2.188-27.152,2.007-19.6,5.669-36.213,10.866-49.323,4.987-12.413,11.274-21.294,19.151-27.1,7.8-5.646,17.937-8.508,30.123-8.508a67.83,67.83,0,0,1,19.911,2.789,36.886,36.886,0,0,1,14.478,8.909c.056.055.112.108.169.161,4.378,4.081,8.262,10.032,11.544,17.688a161.443,161.443,0,0,1,9.044,30.264,371.69,371.69,0,0,1,5.471,43.76c1.23,16.858,1.854,36.651,1.854,58.829,0,19.36-.4,35.824-1.238,50.337A304.744,304.744,0,0,1,313,349.716a158.318,158.318,0,0,1-8.463,30.291l-.06.15A65.058,65.058,0,0,1,292.638,400.2a44.647,44.647,0,0,1-15.832,11.163c-.045.018-.09.036-.135.056-6.022,2.553-13.272,3.847-21.55,3.847-11.153,0-20.308-2.148-27.937-6.537-7.241-4.225-13.369-11.918-18.2-22.833-5.368-12.252-9.413-29.118-12.019-50.083-1.33-11.148-2.337-23.95-2.994-38.049a10,10,0,0,0-19.978.93c.679,14.578,1.726,27.864,3.119,39.537,2.891,23.255,7.324,41.471,13.568,55.724,6.581,14.877,15.471,25.66,26.476,32.08,10.646,6.126,23.419,9.231,37.963,9.231,10.944,0,20.8-1.818,29.286-5.4a65.165,65.165,0,0,0,22.9-16.063c.049-.053.1-.105.146-.159a84.767,84.767,0,0,0,15.649-26.2,177.978,177.978,0,0,0,9.547-34,324.236,324.236,0,0,0,5.055-42.832c.855-14.894,1.271-31.732,1.271-51.479,0-22.661-.642-42.943-1.907-60.279a385.5,385.5,0,0,0-5.8-46.213Z"/><path class="b" d="M183.027,263.241a10,10,0,0,0,0-20h-.007a10,10,0,0,0,.007,20Z"/></g><g transform="translate(-89.538 10)"><path class="b" d="M415.475,444.61a51.164,51.164,0,0,0-3.918-14.723c-.022-.051-.046-.1-.07-.15-2.238-4.68-4.782-7.96-8.008-10.325a20.277,20.277,0,0,0-12.23-4H321.311V21.732a19.83,19.83,0,0,0-3.225-11.218c-2.378-3.568-6.148-6.071-11.524-7.648A72.478,72.478,0,0,0,290.949.537C285.268.166,277.909,0,267.088,0c-8,0-14.313,0-19.345.132-5.267.138-9.6.426-12.839.848a49.086,49.086,0,0,0-9.4,1.982l-.2.069a26.06,26.06,0,0,0-7.066,3.7L113.641,74.45c-.094.061-.186.123-.277.187a53.518,53.518,0,0,0-8.581,6.942A26.591,26.591,0,0,0,98.417,92.05a44.942,44.942,0,0,0-2.47,12.565c-.271,4.083-.409,9.338-.409,15.62A171.423,171.423,0,0,0,96.8,143.989c1.073,7.327,3.319,12.723,6.867,16.492.07.074.141.147.212.22,4.391,4.389,10.178,6.123,17.2,5.154.131-.018.261-.039.391-.062,4.389-.784,9.82-2.739,16.6-5.978q.266-.126.522-.269l63.688-35.138,0,97.033a10,10,0,0,0,20,0l0-113.972a10,10,0,0,0-14.831-8.756L129.2,141.889c-5.922,2.811-9.253,3.827-11.043,4.176-.11.014-.21.023-.3.03a19.057,19.057,0,0,1-1.269-5,155.485,155.485,0,0,1-1.055-20.858c0-5.842.123-10.65.365-14.291a24.642,24.642,0,0,1,1.3-7.034c.066-.173.127-.349.184-.525a6.546,6.546,0,0,1,1.667-2.794c.088-.088.174-.178.258-.269a39.079,39.079,0,0,1,5.339-4.176L229.458,23.29q.419-.271.807-.582a6.112,6.112,0,0,1,1.659-.807,31.281,31.281,0,0,1,5.512-1.086c2.606-.34,6.251-.573,10.83-.693C253.036,20,259.237,20,267.088,20c10.369,0,17.326.152,22.558.494,6.808.444,9.906,1.145,11.146,1.521l.113.034c.147.043.282.084.4.124V425.414a10,10,0,0,0,10,10h79.938a1.39,1.39,0,0,1,.226.014,1.085,1.085,0,0,1,.179.113,8.057,8.057,0,0,1,1.755,2.749,32.46,32.46,0,0,1,2.233,8.9,138.682,138.682,0,0,1,.821,17.036,108.21,108.21,0,0,1-1.038,16.362c-.809,5.122-1.691,7.623-2.289,8.818-.08.16-.156.323-.228.487a6.8,6.8,0,0,1-1.164,1.953l-.119.084a.31.31,0,0,1-.246.071H121.255c-.029-.018-.064-.041-.106-.07a9.906,9.906,0,0,1-1.433-2.366c-.025-.052-.05-.1-.076-.155-.6-1.2-1.482-3.7-2.291-8.823a108.066,108.066,0,0,1-1.039-16.361,138.65,138.65,0,0,1,.818-17,32.614,32.614,0,0,1,2.237-8.929,10.453,10.453,0,0,1,1.809-2.876h91.118a10,10,0,0,0,10-10V311.443a10,10,0,0,0-20,0V415.415H121.009a18.912,18.912,0,0,0-12.249,4.31,27.771,27.771,0,0,0-7.474,10.014c-.023.05-.047.1-.07.149A51.2,51.2,0,0,0,97.3,444.643a155.463,155.463,0,0,0-.984,19.58A125.884,125.884,0,0,0,97.594,483.7c.99,6.266,2.3,10.9,4.115,14.563,2.18,4.535,4.756,7.8,7.873,9.978A19.713,19.713,0,0,0,121.01,512H391.379a20.3,20.3,0,0,0,11.813-3.755,24.152,24.152,0,0,0,7.951-10.139c1.776-3.639,3.062-8.226,4.037-14.4a126.031,126.031,0,0,0,1.282-19.481A155.728,155.728,0,0,0,415.475,444.61Z"/><path class="b" d="M212.3,276.443a10,10,0,0,0,0-20h-.007a10,10,0,0,0,.007,20Z"/></g></g></svg>